<svg width="26" height="26" viewBox="0 0 26 26" fill="none" xmlns="http://www.w3.org/2000/svg">
<path opacity="0.84" fill-rule="evenodd" clip-rule="evenodd" d="M20.2222 2.88889H23.1111C24.7066 2.88889 26 4.18229 26 5.77778V23.1111C26 24.7066 24.7066 26 23.1111 26H2.88889C1.2934 26 0 24.7066 0 23.1111V5.77778C0 4.18229 1.2934 2.88889 2.88889 2.88889H5.77778V1.44444C5.77778 0.6467 6.42448 0 7.22222 0C8.01997 0 8.66667 0.6467 8.66667 1.44444V2.88889H17.3333V1.44444C17.3333 0.6467 17.98 0 18.7778 0C19.5755 0 20.2222 0.6467 20.2222 1.44444V2.88889ZM2.88889 10.1111V23.1111H23.1111V10.1111H2.88889Z" fill="#1A1C20"/>
</svg>
