<svg width="28" height="28" viewBox="0 0 28 28" fill="none" xmlns="http://www.w3.org/2000/svg">
<path opacity="0.84" fill-rule="evenodd" clip-rule="evenodd" d="M15.4 13.1917L20.7622 16.2876C21.4314 16.674 21.661 17.5307 21.2746 18.2C20.8882 18.8693 20.0314 19.0988 19.3622 18.7124L13.3135 15.2202C13.0984 15.0989 12.9184 14.9222 12.7931 14.7096C12.6606 14.4755 12.5975 14.2314 12.6 13.9844V7C12.6 6.2272 13.2272 5.6 14 5.6C14.7728 5.6 15.4 6.2272 15.4 7V13.1917ZM14 0C21.7322 0 28 6.26782 28 14C28 21.7322 21.7322 28 14 28C6.26782 28 0 21.7322 0 14C0 6.26782 6.26782 0 14 0ZM14 2.8C7.81422 2.8 2.8 7.81422 2.8 14C2.8 20.1858 7.81422 25.2 14 25.2C20.1858 25.2 25.2 20.1858 25.2 14C25.2 7.81422 20.1858 2.8 14 2.8Z" fill="#1A1C20"/>
</svg>
