<svg width="25" height="30" viewBox="0 0 25 30" fill="none" xmlns="http://www.w3.org/2000/svg">
<path opacity="0.84" fill-rule="evenodd" clip-rule="evenodd" d="M21.875 27C21.875 22.0365 17.6703 18 12.5 18C7.32969 18 3.125 22.0365 3.125 27H0C0 20.3835 5.60781 15 12.5 15C19.3922 15 25 20.3835 25 27H21.875ZM0 27H3.125V28.5C3.125 29.3284 2.42545 30 1.5625 30C0.699555 30 0 29.3284 0 28.5V27ZM21.875 27H25V28.5C25 29.3284 24.3004 30 23.4375 30C22.5746 30 21.875 29.3284 21.875 28.5V27ZM12.5 12C9.04822 12 6.25 9.31371 6.25 6C6.25 2.68629 9.04822 0 12.5 0C15.9518 0 18.75 2.68629 18.75 6C18.75 9.31371 15.9518 12 12.5 12ZM12.5 9C14.2259 9 15.625 7.65685 15.625 6C15.625 4.34315 14.2259 3 12.5 3C10.7741 3 9.375 4.34315 9.375 6C9.375 7.65685 10.7741 9 12.5 9Z" fill="#1A1C20"/>
</svg>
